<svg xmlns="http://www.w3.org/2000/svg" viewBox="0 0 89.11 48.16"><g id="Layer_2" data-name="Layer 2"><g id="Default"><rect x="47.96" y="4.88" width="15.75" height="38.4" style="fill:none;stroke:#000;stroke-linecap:round;stroke-linejoin:round;stroke-width:0.25px"/><line x1="68.47" y1="6.99" x2="84.23" y2="6.99" style="fill:none;stroke:#000;stroke-linecap:round;stroke-linejoin:round;stroke-width:0.25px"/><line x1="68.47" y1="10.41" x2="84.23" y2="10.41" style="fill:none;stroke:#000;stroke-linecap:round;stroke-linejoin:round;stroke-width:0.25px"/><line x1="68.47" y1="13.83" x2="84.23" y2="13.83" style="fill:none;stroke:#000;stroke-linecap:round;stroke-linejoin:round;stroke-width:0.25px"/><line x1="68.47" y1="17.24" x2="84.23" y2="17.24" style="fill:none;stroke:#000;stroke-linecap:round;stroke-linejoin:round;stroke-width:0.25px"/><line x1="68.47" y1="20.66" x2="84.23" y2="20.66" style="fill:none;stroke:#000;stroke-linecap:round;stroke-linejoin:round;stroke-width:0.25px"/><line x1="68.47" y1="24.08" x2="84.23" y2="24.08" style="fill:none;stroke:#000;stroke-linecap:round;stroke-linejoin:round;stroke-width:0.25px"/><line x1="68.47" y1="27.5" x2="84.23" y2="27.5" style="fill:none;stroke:#000;stroke-linecap:round;stroke-linejoin:round;stroke-width:0.25px"/><line x1="68.47" y1="30.91" x2="84.23" y2="30.91" style="fill:none;stroke:#000;stroke-linecap:round;stroke-linejoin:round;stroke-width:0.25px"/><line x1="68.47" y1="34.33" x2="84.23" y2="34.33" style="fill:none;stroke:#000;stroke-linecap:round;stroke-linejoin:round;stroke-width:0.25px"/><line x1="68.47" y1="37.75" x2="84.23" y2="37.75" style="fill:none;stroke:#000;stroke-linecap:round;stroke-linejoin:round;stroke-width:0.25px"/><line x1="68.47" y1="41.17" x2="84.23" y2="41.17" style="fill:none;stroke:#000;stroke-linecap:round;stroke-linejoin:round;stroke-width:0.25px"/><line x1="47.96" y1="6.99" x2="63.72" y2="6.99" style="fill:none;stroke:#000;stroke-linecap:round;stroke-linejoin:round;stroke-width:0.25px"/><line x1="47.96" y1="10.41" x2="63.72" y2="10.41" style="fill:none;stroke:#000;stroke-linecap:round;stroke-linejoin:round;stroke-width:0.25px"/><line x1="47.96" y1="13.83" x2="63.72" y2="13.83" style="fill:none;stroke:#000;stroke-linecap:round;stroke-linejoin:round;stroke-width:0.25px"/><line x1="47.96" y1="17.24" x2="63.72" y2="17.24" style="fill:none;stroke:#000;stroke-linecap:round;stroke-linejoin:round;stroke-width:0.25px"/><line x1="47.96" y1="20.66" x2="63.72" y2="20.66" style="fill:none;stroke:#000;stroke-linecap:round;stroke-linejoin:round;stroke-width:0.25px"/><line x1="47.96" y1="24.08" x2="63.72" y2="24.08" style="fill:none;stroke:#000;stroke-linecap:round;stroke-linejoin:round;stroke-width:0.25px"/><line x1="47.96" y1="27.5" x2="63.72" y2="27.5" style="fill:none;stroke:#000;stroke-linecap:round;stroke-linejoin:round;stroke-width:0.25px"/><line x1="47.96" y1="30.91" x2="63.72" y2="30.91" style="fill:none;stroke:#000;stroke-linecap:round;stroke-linejoin:round;stroke-width:0.25px"/><line x1="47.96" y1="34.33" x2="63.72" y2="34.33" style="fill:none;stroke:#000;stroke-linecap:round;stroke-linejoin:round;stroke-width:0.25px"/><line x1="47.96" y1="37.75" x2="63.72" y2="37.75" style="fill:none;stroke:#000;stroke-linecap:round;stroke-linejoin:round;stroke-width:0.25px"/><line x1="47.96" y1="41.17" x2="63.72" y2="41.17" style="fill:none;stroke:#000;stroke-linecap:round;stroke-linejoin:round;stroke-width:0.25px"/><line x1="25.39" y1="6.99" x2="41.14" y2="6.99" style="fill:none;stroke:#000;stroke-linecap:round;stroke-linejoin:round;stroke-width:0.25px"/><line x1="25.39" y1="10.41" x2="41.14" y2="10.41" style="fill:none;stroke:#000;stroke-linecap:round;stroke-linejoin:round;stroke-width:0.25px"/><line x1="25.39" y1="13.83" x2="41.14" y2="13.83" style="fill:none;stroke:#000;stroke-linecap:round;stroke-linejoin:round;stroke-width:0.25px"/><line x1="25.39" y1="17.24" x2="41.14" y2="17.24" style="fill:none;stroke:#000;stroke-linecap:round;stroke-linejoin:round;stroke-width:0.25px"/><line x1="25.39" y1="20.66" x2="41.14" y2="20.66" style="fill:none;stroke:#000;stroke-linecap:round;stroke-linejoin:round;stroke-width:0.25px"/><line x1="25.39" y1="24.08" x2="41.14" y2="24.08" style="fill:none;stroke:#000;stroke-linecap:round;stroke-linejoin:round;stroke-width:0.25px"/><line x1="25.39" y1="27.5" x2="41.14" y2="27.5" style="fill:none;stroke:#000;stroke-linecap:round;stroke-linejoin:round;stroke-width:0.25px"/><line x1="25.39" y1="30.91" x2="41.14" y2="30.91" style="fill:none;stroke:#000;stroke-linecap:round;stroke-linejoin:round;stroke-width:0.25px"/><line x1="25.39" y1="34.33" x2="41.14" y2="34.33" style="fill:none;stroke:#000;stroke-linecap:round;stroke-linejoin:round;stroke-width:0.25px"/><line x1="25.39" y1="37.75" x2="41.14" y2="37.75" style="fill:none;stroke:#000;stroke-linecap:round;stroke-linejoin:round;stroke-width:0.25px"/><line x1="25.39" y1="41.17" x2="41.14" y2="41.17" style="fill:none;stroke:#000;stroke-linecap:round;stroke-linejoin:round;stroke-width:0.25px"/><line x1="4.88" y1="6.99" x2="20.63" y2="6.99" style="fill:none;stroke:#000;stroke-linecap:round;stroke-linejoin:round;stroke-width:0.25px"/><line x1="4.88" y1="10.41" x2="20.63" y2="10.41" style="fill:none;stroke:#000;stroke-linecap:round;stroke-linejoin:round;stroke-width:0.25px"/><line x1="4.88" y1="13.83" x2="20.63" y2="13.83" style="fill:none;stroke:#000;stroke-linecap:round;stroke-linejoin:round;stroke-width:0.25px"/><line x1="4.88" y1="17.24" x2="20.63" y2="17.24" style="fill:none;stroke:#000;stroke-linecap:round;stroke-linejoin:round;stroke-width:0.25px"/><line x1="4.88" y1="20.66" x2="20.63" y2="20.66" style="fill:none;stroke:#000;stroke-linecap:round;stroke-linejoin:round;stroke-width:0.25px"/><line x1="4.88" y1="24.08" x2="20.63" y2="24.08" style="fill:none;stroke:#000;stroke-linecap:round;stroke-linejoin:round;stroke-width:0.25px"/><line x1="4.88" y1="27.5" x2="20.63" y2="27.5" style="fill:none;stroke:#000;stroke-linecap:round;stroke-linejoin:round;stroke-width:0.25px"/><line x1="4.88" y1="30.91" x2="20.63" y2="30.91" style="fill:none;stroke:#000;stroke-linecap:round;stroke-linejoin:round;stroke-width:0.25px"/><line x1="4.88" y1="34.33" x2="20.63" y2="34.33" style="fill:none;stroke:#000;stroke-linecap:round;stroke-linejoin:round;stroke-width:0.25px"/><line x1="4.88" y1="37.75" x2="20.63" y2="37.75" style="fill:none;stroke:#000;stroke-linecap:round;stroke-linejoin:round;stroke-width:0.25px"/><line x1="4.88" y1="41.17" x2="20.63" y2="41.17" style="fill:none;stroke:#000;stroke-linecap:round;stroke-linejoin:round;stroke-width:0.25px"/><rect x="68.47" y="4.88" width="15.75" height="38.4" style="fill:none;stroke:#000;stroke-linecap:round;stroke-linejoin:round;stroke-width:0.25px"/><rect x="4.88" y="4.88" width="15.75" height="38.4" style="fill:none;stroke:#000;stroke-linecap:round;stroke-linejoin:round;stroke-width:0.25px"/><rect x="25.39" y="4.88" width="15.75" height="38.4" style="fill:none;stroke:#000;stroke-linecap:round;stroke-linejoin:round;stroke-width:0.25px"/><rect x="45.59" y="2.5" width="20.51" height="43.15" style="fill:none;stroke:#000;stroke-linecap:round;stroke-linejoin:round;stroke-width:0.25px"/><rect x="66.1" y="2.5" width="20.51" height="43.15" style="fill:none;stroke:#000;stroke-linecap:round;stroke-linejoin:round;stroke-width:0.25px"/><rect x="2.5" y="2.5" width="20.51" height="43.15" style="fill:none;stroke:#000;stroke-linecap:round;stroke-linejoin:round;stroke-width:0.25px"/><rect x="23.01" y="2.5" width="20.51" height="43.15" style="fill:none;stroke:#000;stroke-linecap:round;stroke-linejoin:round;stroke-width:0.25px"/><rect x="43.52" y="2.5" width="2.06" height="43.15" style="fill:none;stroke:#000;stroke-linecap:round;stroke-linejoin:round;stroke-width:0.25px"/><rect x="2.5" y="2.5" width="84.1" height="43.15" style="fill:none;stroke:#000;stroke-linecap:round;stroke-linejoin:round;stroke-width:0.25px"/><rect x="0.13" y="0.13" width="88.86" height="47.91" style="fill:none;stroke:#000;stroke-linecap:round;stroke-linejoin:round;stroke-width:0.25px"/></g></g></svg>