<svg xmlns="http://www.w3.org/2000/svg" viewBox="0 0 61.92 62.78"><g id="Layer_2" data-name="Layer 2"><g id="Default"><path d="M12.56,15.87a24,24,0,0,0-2.91,4l-6.1-3.52a30.24,30.24,0,0,1,3.78-5.21Z" style="fill:none;stroke:#000;stroke-linecap:round;stroke-linejoin:round;stroke-width:0.25px"/><path d="M35.12,54.93a23.57,23.57,0,0,0,4.71-1.53l2.33,5.22a29.64,29.64,0,0,1-5.85,1.91Q35.71,57.72,35.12,54.93Z" style="fill:none;stroke:#000;stroke-linecap:round;stroke-linejoin:round;stroke-width:0.25px"/><path d="M30.19,8a23.32,23.32,0,0,0-4.93.52c-.4-1.87-.8-3.73-1.19-5.6a29.17,29.17,0,0,1,6.12-.64Z" style="fill:none;stroke:#000;stroke-linecap:round;stroke-linejoin:round;stroke-width:0.25px"/><path d="M6.6,34.21a24.35,24.35,0,0,0,1,4.85L2.19,40.83a29.48,29.48,0,0,1-1.28-6Z" style="fill:none;stroke:#000;stroke-linecap:round;stroke-linejoin:round;stroke-width:0.25px"/><path d="M16.25,12.55a23.73,23.73,0,0,0-3.69,3.32L8.31,12a29.37,29.37,0,0,1,4.58-4.12Z" style="fill:none;stroke:#000;stroke-linecap:round;stroke-linejoin:round;stroke-width:0.25px"/><path d="M47.81,47.6a22.92,22.92,0,0,0,2.91-4l5,2.86a29.06,29.06,0,0,1-3.62,5Z" style="fill:none;stroke:#000;stroke-linecap:round;stroke-linejoin:round;stroke-width:0.25px"/><path d="M52.74,24.41a23.27,23.27,0,0,0-2-4.53l5-2.86a29.44,29.44,0,0,1,2.5,5.62Z" style="fill:none;stroke:#000;stroke-linecap:round;stroke-linejoin:round;stroke-width:0.25px"/><path d="M52.74,39.06a24.35,24.35,0,0,0,1-4.85l7,.74a30.11,30.11,0,0,1-1.33,6.29Z" style="fill:none;stroke:#000;stroke-linecap:round;stroke-linejoin:round;stroke-width:0.25px"/><path d="M16.25,50.92a23.8,23.8,0,0,0,4.29,2.48Q19.38,56,18.21,58.62a28.72,28.72,0,0,1-5.32-3.07Z" style="fill:none;stroke:#000;stroke-linecap:round;stroke-linejoin:round;stroke-width:0.25px"/><path d="M39.83,10.07a23.57,23.57,0,0,0-4.71-1.53c.39-1.87.79-3.73,1.19-5.6a29.61,29.61,0,0,1,5.85,1.9C41.38,6.59,40.61,8.33,39.83,10.07Z" style="fill:none;stroke:#000;stroke-linecap:round;stroke-linejoin:round;stroke-width:0.25px"/><path d="M20.54,53.4a23.66,23.66,0,0,0,4.72,1.53l-1.65,7.72a30.93,30.93,0,0,1-6.28-2Z" style="fill:none;stroke:#000;stroke-linecap:round;stroke-linejoin:round;stroke-width:0.25px"/><path d="M12.56,47.6a23.73,23.73,0,0,0,3.69,3.32l-3.36,4.63a29.37,29.37,0,0,1-4.58-4.12Z" style="fill:none;stroke:#000;stroke-linecap:round;stroke-linejoin:round;stroke-width:0.25px"/><path d="M9.65,43.59a24,24,0,0,0,2.91,4L8.31,51.43a28.48,28.48,0,0,1-3.61-5Z" style="fill:none;stroke:#000;stroke-linecap:round;stroke-linejoin:round;stroke-width:0.25px"/><path d="M7.63,39.06a24.17,24.17,0,0,0,2,4.53L2.81,47.54a31.7,31.7,0,0,1-2.69-6Z" style="fill:none;stroke:#000;stroke-linecap:round;stroke-linejoin:round;stroke-width:0.25px"/><path d="M6.6,29.26a24.09,24.09,0,0,0,0,4.95l-5.69.6a30.1,30.1,0,0,1,0-6.15Z" style="fill:none;stroke:#000;stroke-linecap:round;stroke-linejoin:round;stroke-width:0.25px"/><path d="M7.63,24.41a24.06,24.06,0,0,0-1,4.85l-5.69-.6a29.33,29.33,0,0,1,1.28-6Z" style="fill:none;stroke:#000;stroke-linecap:round;stroke-linejoin:round;stroke-width:0.25px"/><path d="M9.65,19.88a23.89,23.89,0,0,0-2,4.53L.12,22a31.7,31.7,0,0,1,2.69-6Z" style="fill:none;stroke:#000;stroke-linecap:round;stroke-linejoin:round;stroke-width:0.25px"/><path d="M20.54,10.07a23.8,23.8,0,0,0-4.29,2.48L12.89,7.92a29.34,29.34,0,0,1,5.32-3.08Q19.38,7.47,20.54,10.07Z" style="fill:none;stroke:#000;stroke-linecap:round;stroke-linejoin:round;stroke-width:0.25px"/><path d="M25.26,8.54a23.66,23.66,0,0,0-4.72,1.53L17.33,2.86a30.93,30.93,0,0,1,6.28-2Z" style="fill:none;stroke:#000;stroke-linecap:round;stroke-linejoin:round;stroke-width:0.25px"/><path d="M35.12,8.54A23.39,23.39,0,0,0,30.19,8V.12a30.94,30.94,0,0,1,6.57.7Q35.94,4.68,35.12,8.54Z" style="fill:none;stroke:#000;stroke-linecap:round;stroke-linejoin:round;stroke-width:0.25px"/><path d="M44.12,12.55a23.46,23.46,0,0,0-4.29-2.48c.78-1.74,1.55-3.48,2.33-5.23a29.77,29.77,0,0,1,5.33,3.08C46.37,9.46,45.25,11,44.12,12.55Z" style="fill:none;stroke:#000;stroke-linecap:round;stroke-linejoin:round;stroke-width:0.25px"/><path d="M47.81,15.87a23.28,23.28,0,0,0-3.69-3.32c1.13-1.54,2.25-3.09,3.37-4.63A29.3,29.3,0,0,1,52.06,12Z" style="fill:none;stroke:#000;stroke-linecap:round;stroke-linejoin:round;stroke-width:0.25px"/><path d="M50.72,19.88a22.92,22.92,0,0,0-2.91-4L53,11.15a30.24,30.24,0,0,1,3.78,5.21Z" style="fill:none;stroke:#000;stroke-linecap:round;stroke-linejoin:round;stroke-width:0.25px"/><path d="M53.77,29.26a24.06,24.06,0,0,0-1-4.85l5.44-1.77a29.33,29.33,0,0,1,1.28,6Z" style="fill:none;stroke:#000;stroke-linecap:round;stroke-linejoin:round;stroke-width:0.25px"/><path d="M53.77,34.21a24.09,24.09,0,0,0,0-4.95l7.85-.83a31.75,31.75,0,0,1,0,6.61Z" style="fill:none;stroke:#000;stroke-linecap:round;stroke-linejoin:round;stroke-width:0.25px"/><path d="M50.72,43.59a23.54,23.54,0,0,0,2-4.53l7.51,2.44a31.7,31.7,0,0,1-2.69,6Z" style="fill:none;stroke:#000;stroke-linecap:round;stroke-linejoin:round;stroke-width:0.25px"/><path d="M44.12,50.92a23.28,23.28,0,0,0,3.69-3.32l4.25,3.83a29.3,29.3,0,0,1-4.57,4.12Q45.81,53.23,44.12,50.92Z" style="fill:none;stroke:#000;stroke-linecap:round;stroke-linejoin:round;stroke-width:0.25px"/><path d="M39.83,53.4a23.46,23.46,0,0,0,4.29-2.48l4.14,5.7a30.43,30.43,0,0,1-5.56,3.21Z" style="fill:none;stroke:#000;stroke-linecap:round;stroke-linejoin:round;stroke-width:0.25px"/><path d="M30.19,55.45a23.39,23.39,0,0,0,4.93-.52q.59,2.79,1.19,5.6a29.31,29.31,0,0,1-6.12.64Z" style="fill:none;stroke:#000;stroke-linecap:round;stroke-linejoin:round;stroke-width:0.25px"/><path d="M25.26,54.93a23.32,23.32,0,0,0,4.93.52v5.72a29.17,29.17,0,0,1-6.12-.64Q24.66,57.72,25.26,54.93Z" style="fill:none;stroke:#000;stroke-linecap:round;stroke-linejoin:round;stroke-width:0.25px"/><path d="M30.19,9.82a21.92,21.92,0,1,0,15.49,6.42A21.89,21.89,0,0,0,30.19,9.82Z" style="fill:none;stroke:#000;stroke-linecap:round;stroke-linejoin:round;stroke-width:0.25px"/></g></g></svg>