<?xml version="1.0" encoding="utf-8"?>
<!-- Generator: Adobe Illustrator 25.0.0, SVG Export Plug-In . SVG Version: 6.00 Build 0)  -->
<svg version="1.1" id="Layer_1" xmlns="http://www.w3.org/2000/svg" xmlns:xlink="http://www.w3.org/1999/xlink" x="0px" y="0px"
	 viewBox="0 0 141.7 141.7" enable-background="new 0 0 141.7 141.7" xml:space="preserve">
<path fill="none" stroke="#010101" stroke-width="0.25" stroke-linecap="round" stroke-linejoin="round" d="M29.5,35.9
	c-2.5,2.8-4.7,5.8-6.6,9.1c-4.6-2.7-9.2-5.3-13.8-8c2.5-4.2,5.3-8.1,8.6-11.8C21.6,28.8,25.5,32.3,29.5,35.9z"/>
<path fill="none" stroke="#010101" stroke-width="0.25" stroke-linecap="round" stroke-linejoin="round" d="M80.5,124.3
	c3.7-0.8,7.2-1.9,10.7-3.5c1.8,3.9,3.5,7.9,5.3,11.8c-4.3,1.9-8.7,3.3-13.2,4.3C82.3,132.7,81.4,128.5,80.5,124.3z"/>
<path fill="none" stroke="#010101" stroke-width="0.25" stroke-linecap="round" stroke-linejoin="round" d="M69.3,18.1
	c-3.8,0-7.5,0.4-11.2,1.2c-0.9-4.2-1.8-8.4-2.7-12.7c4.6-1,9.2-1.5,13.8-1.5C69.3,9.5,69.3,13.8,69.3,18.1z"/>
<path fill="none" stroke="#010101" stroke-width="0.25" stroke-linecap="round" stroke-linejoin="round" d="M16,77.4
	c0.4,3.8,1.2,7.4,2.3,11c-4.1,1.3-8.2,2.7-12.3,4c-1.4-4.5-2.4-9-2.9-13.6C7.4,78.3,11.7,77.8,16,77.4z"/>
<path fill="none" stroke="#010101" stroke-width="0.25" stroke-linecap="round" stroke-linejoin="round" d="M37.8,28.4
	c-3.1,2.2-5.8,4.7-8.3,7.5c-3.2-2.9-6.4-5.8-9.6-8.7c3.1-3.5,6.6-6.6,10.3-9.3C32.7,21.4,35.2,24.9,37.8,28.4z"/>
<path fill="none" stroke="#010101" stroke-width="0.25" stroke-linecap="round" stroke-linejoin="round" d="M109.2,107.7
	c2.5-2.8,4.7-5.8,6.6-9.1c3.7,2.2,7.5,4.3,11.2,6.5c-2.3,4.1-5,7.8-8.2,11.3C115.6,113.5,112.4,110.6,109.2,107.7z"/>
<path fill="none" stroke="#010101" stroke-width="0.25" stroke-linecap="round" stroke-linejoin="round" d="M120.3,55.2
	c-1.2-3.6-2.7-7-4.6-10.2c3.7-2.2,7.5-4.3,11.2-6.5c2.3,4.1,4.2,8.3,5.7,12.7C128.6,52.5,124.4,53.9,120.3,55.2z"/>
<path fill="none" stroke="#010101" stroke-width="0.25" stroke-linecap="round" stroke-linejoin="round" d="M120.3,88.4
	c1.2-3.6,1.9-7.2,2.3-11c5.3,0.6,10.6,1.1,15.8,1.7c-0.5,4.9-1.5,9.6-3,14.2C130.4,91.6,125.4,90,120.3,88.4z"/>
<path fill="none" stroke="#010101" stroke-width="0.25" stroke-linecap="round" stroke-linejoin="round" d="M37.8,115.2
	c3.1,2.2,6.3,4.1,9.7,5.6c-1.8,3.9-3.5,7.9-5.3,11.8c-4.3-1.9-8.3-4.2-12.1-7C32.7,122.2,35.2,118.7,37.8,115.2z"/>
<path fill="none" stroke="#010101" stroke-width="0.25" stroke-linecap="round" stroke-linejoin="round" d="M91.1,22.8
	c-3.5-1.5-7-2.7-10.7-3.5c0.9-4.2,1.8-8.4,2.7-12.7c4.6,1,9,2.4,13.2,4.3C94.7,14.9,92.9,18.8,91.1,22.8z"/>
<path fill="none" stroke="#010101" stroke-width="0.25" stroke-linecap="round" stroke-linejoin="round" d="M47.5,120.8
	c3.5,1.5,7,2.7,10.7,3.5c-1.2,5.8-2.5,11.7-3.7,17.5c-4.9-1-9.6-2.6-14.2-4.6C42.7,131.7,45.1,126.2,47.5,120.8z"/>
<path fill="none" stroke="#010101" stroke-width="0.25" stroke-linecap="round" stroke-linejoin="round" d="M29.5,107.7
	c2.5,2.8,5.3,5.3,8.3,7.5c-2.5,3.5-5.1,7-7.6,10.5c-3.8-2.8-7.2-5.8-10.3-9.3C23,113.5,26.2,110.6,29.5,107.7z"/>
<path fill="none" stroke="#010101" stroke-width="0.25" stroke-linecap="round" stroke-linejoin="round" d="M22.9,98.6
	c1.9,3.3,4.1,6.3,6.6,9.1c-3.2,2.9-6.4,5.8-9.6,8.7c-3.1-3.5-5.8-7.2-8.2-11.3C15.4,102.9,19.1,100.8,22.9,98.6z"/>
<path fill="none" stroke="#010101" stroke-width="0.25" stroke-linecap="round" stroke-linejoin="round" d="M18.3,88.4
	c1.2,3.6,2.7,7,4.6,10.2c-5.2,3-10.3,6-15.5,8.9c-2.5-4.4-4.5-8.9-6.1-13.7C7,92,12.6,90.2,18.3,88.4z"/>
<path fill="none" stroke="#010101" stroke-width="0.25" stroke-linecap="round" stroke-linejoin="round" d="M16,66.2
	c-0.4,3.8-0.4,7.5,0,11.2c-4.3,0.5-8.6,0.9-12.9,1.4c-0.5-4.7-0.5-9.3,0-13.9C7.4,65.3,11.7,65.7,16,66.2z"/>
<path fill="none" stroke="#010101" stroke-width="0.25" stroke-linecap="round" stroke-linejoin="round" d="M18.3,55.2
	c-1.2,3.6-1.9,7.2-2.3,11c-4.3-0.5-8.6-0.9-12.9-1.4c0.5-4.7,1.4-9.2,2.9-13.6C10.1,52.5,14.2,53.9,18.3,55.2z"/>
<path fill="none" stroke="#010101" stroke-width="0.25" stroke-linecap="round" stroke-linejoin="round" d="M22.9,45
	c-1.9,3.3-3.4,6.7-4.6,10.2c-5.7-1.8-11.3-3.7-17-5.5c1.6-4.8,3.6-9.3,6.1-13.7C12.5,39,17.7,42,22.9,45z"/>
<path fill="none" stroke="#010101" stroke-width="0.25" stroke-linecap="round" stroke-linejoin="round" d="M47.5,22.8
	c-3.5,1.5-6.7,3.4-9.7,5.6c-2.5-3.5-5.1-7-7.6-10.5c3.8-2.8,7.8-5.1,12.1-7C44,14.9,45.7,18.8,47.5,22.8z"/>
<path fill="none" stroke="#010101" stroke-width="0.25" stroke-linecap="round" stroke-linejoin="round" d="M58.2,19.3
	c-3.7,0.8-7.2,1.9-10.7,3.5c-2.4-5.4-4.8-10.9-7.3-16.3c4.6-2,9.3-3.6,14.2-4.6C55.7,7.7,56.9,13.5,58.2,19.3z"/>
<path fill="none" stroke="#010101" stroke-width="0.25" stroke-linecap="round" stroke-linejoin="round" d="M80.5,19.3
	c-3.7-0.8-7.4-1.2-11.2-1.2c0-6,0-11.9,0-17.9c5,0,9.9,0.5,14.9,1.6C83,7.7,81.7,13.5,80.5,19.3z"/>
<path fill="none" stroke="#010101" stroke-width="0.25" stroke-linecap="round" stroke-linejoin="round" d="M100.9,28.4
	c-3.1-2.2-6.3-4.1-9.7-5.6c1.8-3.9,3.5-7.9,5.3-11.8c4.3,1.9,8.3,4.2,12.1,7C105.9,21.4,103.4,24.9,100.9,28.4z"/>
<path fill="none" stroke="#010101" stroke-width="0.25" stroke-linecap="round" stroke-linejoin="round" d="M109.2,35.9
	c-2.5-2.8-5.3-5.3-8.3-7.5c2.5-3.5,5.1-7,7.6-10.5c3.8,2.8,7.2,5.8,10.3,9.3C115.6,30.1,112.4,33,109.2,35.9z"/>
<path fill="none" stroke="#010101" stroke-width="0.25" stroke-linecap="round" stroke-linejoin="round" d="M115.8,45
	c-1.9-3.3-4.1-6.3-6.6-9.1c3.9-3.6,7.9-7.1,11.8-10.7c3.3,3.6,6.1,7.5,8.6,11.8C125,39.6,120.4,42.3,115.8,45z"/>
<path fill="none" stroke="#010101" stroke-width="0.25" stroke-linecap="round" stroke-linejoin="round" d="M122.7,66.2
	c-0.4-3.8-1.2-7.4-2.3-11c4.1-1.3,8.2-2.7,12.3-4c1.4,4.5,2.4,9,2.9,13.6C131.3,65.3,127,65.7,122.7,66.2z"/>
<path fill="none" stroke="#010101" stroke-width="0.25" stroke-linecap="round" stroke-linejoin="round" d="M122.7,77.4
	c0.4-3.8,0.4-7.5,0-11.2c5.9-0.6,11.8-1.2,17.8-1.9c0.5,5,0.5,9.9,0,15C134.5,78.6,128.6,78,122.7,77.4z"/>
<path fill="none" stroke="#010101" stroke-width="0.25" stroke-linecap="round" stroke-linejoin="round" d="M115.8,98.6
	c1.9-3.3,3.4-6.7,4.6-10.2c5.7,1.8,11.3,3.7,17,5.5c-1.6,4.8-3.6,9.3-6.1,13.7C126.1,104.6,120.9,101.6,115.8,98.6z"/>
<path fill="none" stroke="#010101" stroke-width="0.25" stroke-linecap="round" stroke-linejoin="round" d="M100.9,115.2
	c3.1-2.2,5.8-4.7,8.3-7.5c3.2,2.9,6.4,5.8,9.6,8.7c-3.1,3.5-6.6,6.6-10.3,9.3C105.9,122.2,103.4,118.7,100.9,115.2z"/>
<path fill="none" stroke="#010101" stroke-width="0.25" stroke-linecap="round" stroke-linejoin="round" d="M91.1,120.8
	c3.5-1.5,6.7-3.4,9.7-5.6c3.1,4.3,6.2,8.6,9.4,12.9c-4,2.9-8.1,5.3-12.6,7.3C95.5,130.5,93.3,125.6,91.1,120.8z"/>
<path fill="none" stroke="#010101" stroke-width="0.25" stroke-linecap="round" stroke-linejoin="round" d="M69.3,125.4
	c3.8,0,7.5-0.4,11.2-1.2c0.9,4.2,1.8,8.4,2.7,12.7c-4.6,1-9.2,1.5-13.8,1.5C69.3,134.1,69.3,129.7,69.3,125.4z"/>
<path fill="none" stroke="#010101" stroke-width="0.25" stroke-linecap="round" stroke-linejoin="round" d="M58.2,124.3
	c3.7,0.8,7.4,1.2,11.2,1.2c0,4.3,0,8.6,0,12.9c-4.7,0-9.3-0.5-13.8-1.5C56.4,132.7,57.3,128.5,58.2,124.3z"/>
<path fill="none" stroke="#010101" stroke-width="0.25" stroke-linecap="round" stroke-linejoin="round" d="M69.3,22.2
	c-13.2,0-25.7,5.2-35.1,14.5C24.9,46,19.7,58.6,19.7,71.8c0,13.2,5.2,25.7,14.5,35.1c9.3,9.3,21.9,14.5,35.1,14.5
	c13.2,0,25.7-5.2,35.1-14.5c9.3-9.3,14.5-21.9,14.5-35.1c0-13.2-5.2-25.7-14.5-35.1C95.1,27.4,82.5,22.2,69.3,22.2z"/>
</svg>
