<?xml version="1.0" encoding="utf-8"?>
<!-- Generator: Adobe Illustrator 25.0.0, SVG Export Plug-In . SVG Version: 6.00 Build 0)  -->
<svg version="1.1" id="Layer_1" xmlns="http://www.w3.org/2000/svg" xmlns:xlink="http://www.w3.org/1999/xlink" x="0px" y="0px"
	 viewBox="0 0 141.7 141.7" enable-background="new 0 0 141.7 141.7" xml:space="preserve">
<path fill="none" stroke="#010101" stroke-width="0.25" stroke-linecap="round" stroke-linejoin="round" d="M70.9,9.5
	c-16.3,0-31.9,6.5-43.4,18C15.9,39,9.5,54.6,9.5,70.9c0,16.3,6.5,31.9,18,43.4c11.5,11.5,27.1,18,43.4,18s31.9-6.5,43.4-18
	c11.5-11.5,18-27.1,18-43.4c0-16.3-6.5-31.9-18-43.4C102.8,15.9,87.2,9.5,70.9,9.5z"/>
<path fill="none" stroke="#010101" stroke-width="0.25" stroke-linecap="round" stroke-linejoin="round" d="M70.9,0
	C52,0,34.1,7.4,20.8,20.8C7.4,34.1,0,52,0,70.9c0,18.8,7.4,36.8,20.8,50.1c13.3,13.3,31.3,20.8,50.1,20.8c18.8,0,36.8-7.4,50.1-20.8
	s20.8-31.3,20.8-50.1c0-18.8-7.4-36.8-20.8-50.1C107.7,7.4,89.7,0,70.9,0z"/>
</svg>
