<svg xmlns="http://www.w3.org/2000/svg" viewBox="0 0 55.17 108.85"><g id="Layer_2" data-name="Layer 2"><g id="Default"><line x1="15.74" y1="79.35" x2="15.74" y2="56.94" style="fill:none;stroke:#000;stroke-linecap:round;stroke-linejoin:round;stroke-width:0.25px"/><line x1="15.74" y1="105.12" x2="15.74" y2="82.46" style="fill:none;stroke:#000;stroke-linecap:round;stroke-linejoin:round;stroke-width:0.25px"/><line x1="27.64" y1="79.35" x2="27.64" y2="56.94" style="fill:none;stroke:#000;stroke-linecap:round;stroke-linejoin:round;stroke-width:0.25px"/><line x1="27.64" y1="105.12" x2="27.64" y2="82.46" style="fill:none;stroke:#000;stroke-linecap:round;stroke-linejoin:round;stroke-width:0.25px"/><line x1="39.54" y1="79.35" x2="39.54" y2="56.94" style="fill:none;stroke:#000;stroke-linecap:round;stroke-linejoin:round;stroke-width:0.25px"/><line x1="39.54" y1="105.12" x2="39.54" y2="82.46" style="fill:none;stroke:#000;stroke-linecap:round;stroke-linejoin:round;stroke-width:0.25px"/><line x1="15.74" y1="53.82" x2="15.74" y2="30.7" style="fill:none;stroke:#000;stroke-linecap:round;stroke-linejoin:round;stroke-width:0.25px"/><line x1="27.64" y1="53.82" x2="27.64" y2="30.7" style="fill:none;stroke:#000;stroke-linecap:round;stroke-linejoin:round;stroke-width:0.25px"/><line x1="39.54" y1="53.82" x2="39.54" y2="30.7" style="fill:none;stroke:#000;stroke-linecap:round;stroke-linejoin:round;stroke-width:0.25px"/><line x1="15.74" y1="27.59" x2="15.74" y2="6.88" style="fill:none;stroke:#000;stroke-linecap:round;stroke-linejoin:round;stroke-width:0.25px"/><line x1="27.64" y1="27.59" x2="27.64" y2="3.73" style="fill:none;stroke:#000;stroke-linecap:round;stroke-linejoin:round;stroke-width:0.25px"/><line x1="39.54" y1="27.59" x2="39.54" y2="6.94" style="fill:none;stroke:#000;stroke-linecap:round;stroke-linejoin:round;stroke-width:0.25px"/><path d="M55.05,27.59a27.47,27.47,0,0,0-54.93,0" style="fill:none;stroke:#000;stroke-linecap:round;stroke-linejoin:round;stroke-width:0.25px"/><line x1="55.05" y1="108.72" x2="55.05" y2="27.59" style="fill:none;stroke:#000;stroke-linecap:round;stroke-linejoin:round;stroke-width:0.25px"/><line x1="0.13" y1="108.72" x2="55.05" y2="108.72" style="fill:none;stroke:#000;stroke-linecap:round;stroke-linejoin:round;stroke-width:0.25px"/><rect x="3.73" y="79.35" width="47.72" height="3.11" style="fill:none;stroke:#000;stroke-linecap:round;stroke-linejoin:round;stroke-width:0.25px"/><rect x="3.73" y="53.82" width="47.72" height="3.11" style="fill:none;stroke:#000;stroke-linecap:round;stroke-linejoin:round;stroke-width:0.25px"/><rect x="3.73" y="27.59" width="47.72" height="3.11" style="fill:none;stroke:#000;stroke-linecap:round;stroke-linejoin:round;stroke-width:0.25px"/><path d="M3.73,27.59v77.53H51.45V27.59a23.86,23.86,0,1,0-47.72,0Z" style="fill:none;stroke:#000;stroke-linecap:round;stroke-linejoin:round;stroke-width:0.25px"/><line x1="0.13" y1="27.57" x2="0.13" y2="108.71" style="fill:none;stroke:#000;stroke-linecap:round;stroke-linejoin:round;stroke-width:0.25px"/></g></g></svg>