<svg xmlns="http://www.w3.org/2000/svg" viewBox="0 0 48.6 108.85"><g id="Layer_2" data-name="Layer 2"><g id="Default"><polygon points="44.88 37.28 24.3 34.13 3.73 37.27 3.73 40.91 24.3 37.77 44.88 40.92 44.88 37.28" style="fill:none;stroke:#000;stroke-linecap:round;stroke-linejoin:round;stroke-width:0.25px"/><path d="M17.29,13.65a9.9,9.9,0,1,0,14,0A9.9,9.9,0,0,0,17.29,13.65Z" style="fill:none;stroke:#000;stroke-linecap:round;stroke-linejoin:round;stroke-width:0.25px"/><path d="M14.74,11.11a13.5,13.5,0,1,0,19.09,0A13.5,13.5,0,0,0,14.74,11.11Z" style="fill:none;stroke:#000;stroke-linecap:round;stroke-linejoin:round;stroke-width:0.25px"/><path d="M.12,37.27v71.45H48.48V37.28a39.67,39.67,0,0,0-6.17-21.17A43.29,43.29,0,0,0,26.1,1.1l-1.8-1-1.8,1a43.44,43.44,0,0,0-16.21,15A39.7,39.7,0,0,0,.12,37.27Z" style="fill:none;stroke:#000;stroke-linecap:round;stroke-linejoin:round;stroke-width:0.25px"/><path d="M3.73,37.27v68.09H44.88V37.28a36.55,36.55,0,0,0-5.67-19.47A39.93,39.93,0,0,0,24.3,4,39.82,39.82,0,0,0,9.4,17.81,36.43,36.43,0,0,0,3.73,37.27Z" style="fill:none;stroke:#000;stroke-linecap:round;stroke-linejoin:round;stroke-width:0.25px"/></g></g></svg>