<?xml version="1.0" encoding="utf-8"?>
<!-- Generator: Adobe Illustrator 25.0.0, SVG Export Plug-In . SVG Version: 6.00 Build 0)  -->
<svg version="1.1" id="Layer_1" xmlns="http://www.w3.org/2000/svg" xmlns:xlink="http://www.w3.org/1999/xlink" x="0px" y="0px"
	 viewBox="0 0 75.6 141.7" enable-background="new 0 0 75.6 141.7" xml:space="preserve">
<rect x="15" y="71.5" fill="none" stroke="#010101" stroke-width="0.25" stroke-miterlimit="10" width="45.1" height="54.5"/>
<rect x="11" y="66.8" fill="none" stroke="#010101" stroke-width="0.25" stroke-miterlimit="10" width="53.2" height="63.9"/>
<path fill="none" stroke="#010101" stroke-width="0.25" stroke-miterlimit="10" d="M32.4,19.2c-2,0.3-4.1,0.7-6.1,1.4
	c-1,0.3-2.1,0.8-3.1,1.2c-0.7,0.3-1.4,0.7-2.1,1.1c-0.7,0.4-1.4,0.8-2.1,1.2c-0.8,0.4-1.6,0.9-2.3,1.3c-0.9,0.5-1.8,1-2.7,1.4
	c-0.5,0.2-1,0.5-1.5,0.7c-0.3,0.1-0.5,0.2-0.8,0.3c-0.3,0.1-0.5,0.2-0.8,0.3c0,34.2,0,68.4,0,102.6c17.7,0,35.5,0,53.2,0
	c0-34.2,0-68.4,0-102.6c-0.3-0.1-0.5-0.2-0.8-0.3c-0.3-0.1-0.5-0.2-0.8-0.3c-0.5-0.2-1-0.4-1.5-0.7c-0.9-0.4-1.8-0.9-2.7-1.4
	c-0.8-0.4-1.6-0.9-2.3-1.3c-1.4-0.8-2.8-1.6-4.2-2.3c-1-0.5-2-0.9-3.1-1.2c-0.9-0.3-1.8-0.6-2.7-0.8c-1.1-0.3-2.2-0.4-3.3-0.6
	c0.3-3.4,0.7-6.9,1-10.3C59.3,11,62,19.2,73.1,19.2c0,40.6,0,81.2,0,121.8c-23.7,0-47.3,0-71,0c0-40.6,0-81.2,0-121.8
	c11.1,0,13.8-8.2,29.3-10.3C31.8,12.4,32.1,15.8,32.4,19.2z"/>
<polygon fill="none" stroke="#010101" stroke-width="0.25" stroke-miterlimit="10" points="32.5,19.2 42.7,19.2 44.6,0.7 30.6,0.7 
	"/>
<path fill="none" stroke="#010101" stroke-width="0.25" stroke-miterlimit="10" d="M35.4,23.9c-2.4,0-4.9,0.3-7.2,1c0,0,0,0,0,0
	c-0.9,0.3-1.8,0.6-2.6,1c-0.6,0.3-1.2,0.6-1.8,0.9c-0.6,0.3-1.2,0.6-1.7,1c-0.6,0.4-1.3,0.7-1.9,1.1c-0.7,0.4-1.5,0.8-2.2,1.2
	c-0.9,0.5-1.8,0.9-2.7,1.3v35.4h45.1V31.4c-0.9-0.4-1.8-0.9-2.7-1.3c-0.7-0.4-1.5-0.8-2.2-1.2c-1-0.6-1.9-1.1-2.9-1.7
	c-0.6-0.3-1.1-0.6-1.7-0.9c-0.4-0.2-0.8-0.4-1.2-0.6c-0.7-0.3-1.5-0.6-2.3-0.8c0,0,0,0-0.1,0c-2.3-0.7-4.8-1-7.2-1h-2.2H35.4z"/>
</svg>
